<svg xmlns="http://www.w3.org/2000/svg" version="1.1" xmlns:xlink="http://www.w3.org/1999/xlink" width="2000px" height="2000px"><svg xmlns="http://www.w3.org/2000/svg" version="1.1" xmlns:xlink="http://www.w3.org/1999/xlink" width="2000px" height="2000px"><svg xmlns="http://www.w3.org/2000/svg" version="1.1" width="2000px" height="2000px" style="shape-rendering:geometricPrecision; text-rendering:geometricPrecision; image-rendering:optimizeQuality; fill-rule:evenodd; clip-rule:evenodd" xmlns:xlink="http://www.w3.org/1999/xlink">
<g><path style="opacity:1" fill="#858685" d="M 374.5,-0.5 C 791.167,-0.5 1207.83,-0.5 1624.5,-0.5C 1624.5,20.1667 1624.5,40.8333 1624.5,61.5C 1624.5,82.5 1624.5,103.5 1624.5,124.5C 1645.17,124.5 1665.83,124.5 1686.5,124.5C 1686.5,145.167 1686.5,165.833 1686.5,186.5C 1665.83,186.5 1645.17,186.5 1624.5,186.5C 1624.5,207.5 1624.5,228.5 1624.5,249.5C 1624.5,291.167 1624.5,332.833 1624.5,374.5C 1603.5,374.5 1582.5,374.5 1561.5,374.5C 1561.5,270.167 1561.5,165.833 1561.5,61.5C 1186.5,61.5 811.5,61.5 436.5,61.5C 436.5,228.167 436.5,394.833 436.5,561.5C 436.5,582.5 436.5,603.5 436.5,624.5C 436.5,645.167 436.5,665.833 436.5,686.5C 415.833,686.5 395.167,686.5 374.5,686.5C 374.5,665.833 374.5,645.167 374.5,624.5C 374.5,416.167 374.5,207.833 374.5,-0.5 Z"></path></g>
<g><path style="opacity:1" fill="#f7f8f7" d="M 1561.5,374.5 C 1561.5,395.167 1561.5,415.833 1561.5,436.5C 1561.5,457.5 1561.5,478.5 1561.5,499.5C 1582.5,499.5 1603.5,499.5 1624.5,499.5C 1624.5,520.167 1624.5,540.833 1624.5,561.5C 1645.17,561.5 1665.83,561.5 1686.5,561.5C 1686.5,582.5 1686.5,603.5 1686.5,624.5C 1707.5,624.5 1728.5,624.5 1749.5,624.5C 1749.5,645.167 1749.5,665.833 1749.5,686.5C 1770.17,686.5 1790.83,686.5 1811.5,686.5C 1811.5,707.5 1811.5,728.5 1811.5,749.5C 1832.5,749.5 1853.5,749.5 1874.5,749.5C 1874.5,1124.5 1874.5,1499.5 1874.5,1874.5C 1686.83,1874.5 1499.17,1874.5 1311.5,1874.5C 1311.5,1707.83 1311.5,1541.17 1311.5,1374.5C 1332.5,1374.5 1353.5,1374.5 1374.5,1374.5C 1374.5,1291.17 1374.5,1207.83 1374.5,1124.5C 1353.5,1124.5 1332.5,1124.5 1311.5,1124.5C 1311.5,1103.5 1311.5,1082.5 1311.5,1061.5C 1290.83,1061.5 1270.17,1061.5 1249.5,1061.5C 1249.5,1040.83 1249.5,1020.17 1249.5,999.5C 1270.17,999.5 1290.83,999.5 1311.5,999.5C 1311.5,978.5 1311.5,957.5 1311.5,936.5C 1332.5,936.5 1353.5,936.5 1374.5,936.5C 1374.5,915.833 1374.5,895.167 1374.5,874.5C 1395.17,874.5 1415.83,874.5 1436.5,874.5C 1436.5,853.5 1436.5,832.5 1436.5,811.5C 1457.5,811.5 1478.5,811.5 1499.5,811.5C 1499.5,790.833 1499.5,770.167 1499.5,749.5C 1520.17,749.5 1540.83,749.5 1561.5,749.5C 1561.5,728.5 1561.5,707.5 1561.5,686.5C 1561.5,665.833 1561.5,645.167 1561.5,624.5C 1540.83,624.5 1520.17,624.5 1499.5,624.5C 1499.5,582.833 1499.5,541.167 1499.5,499.5C 1478.5,499.5 1457.5,499.5 1436.5,499.5C 1436.5,478.5 1436.5,457.5 1436.5,436.5C 1394.83,436.5 1353.17,436.5 1311.5,436.5C 1311.5,457.5 1311.5,478.5 1311.5,499.5C 1290.83,499.5 1270.17,499.5 1249.5,499.5C 1249.5,520.167 1249.5,540.833 1249.5,561.5C 1228.5,561.5 1207.5,561.5 1186.5,561.5C 1186.5,582.5 1186.5,603.5 1186.5,624.5C 1165.83,624.5 1145.17,624.5 1124.5,624.5C 1124.5,645.167 1124.5,665.833 1124.5,686.5C 1103.5,686.5 1082.5,686.5 1061.5,686.5C 1061.5,707.5 1061.5,728.5 1061.5,749.5C 1040.83,749.5 1020.17,749.5 999.5,749.5C 999.5,770.167 999.5,790.833 999.5,811.5C 978.5,811.5 957.5,811.5 936.5,811.5C 936.5,769.833 936.5,728.167 936.5,686.5C 936.5,624.167 936.5,561.833 936.5,499.5C 936.5,457.833 936.5,416.167 936.5,374.5C 936.5,332.833 936.5,291.167 936.5,249.5C 894.833,249.5 853.167,249.5 811.5,249.5C 811.5,207.833 811.5,166.167 811.5,124.5C 790.833,124.5 770.167,124.5 749.5,124.5C 728.5,124.5 707.5,124.5 686.5,124.5C 665.833,124.5 645.167,124.5 624.5,124.5C 603.5,124.5 582.5,124.5 561.5,124.5C 561.5,145.167 561.5,165.833 561.5,186.5C 561.5,207.5 561.5,228.5 561.5,249.5C 561.5,270.167 561.5,290.833 561.5,311.5C 561.5,374.167 561.5,436.833 561.5,499.5C 561.5,520.167 561.5,540.833 561.5,561.5C 561.5,582.5 561.5,603.5 561.5,624.5C 540.833,624.5 520.167,624.5 499.5,624.5C 499.5,603.5 499.5,582.5 499.5,561.5C 478.5,561.5 457.5,561.5 436.5,561.5C 436.5,394.833 436.5,228.167 436.5,61.5C 811.5,61.5 1186.5,61.5 1561.5,61.5C 1561.5,165.833 1561.5,270.167 1561.5,374.5 Z"></path></g>
<g><path style="opacity:1" fill="#000000" d="M 1624.5,61.5 C 1645.17,61.5 1665.83,61.5 1686.5,61.5C 1686.5,82.5 1686.5,103.5 1686.5,124.5C 1665.83,124.5 1645.17,124.5 1624.5,124.5C 1624.5,103.5 1624.5,82.5 1624.5,61.5 Z"></path></g>
<g><path style="opacity:1" fill="#656665" d="M 624.5,124.5 C 624.5,145.167 624.5,165.833 624.5,186.5C 603.5,186.5 582.5,186.5 561.5,186.5C 561.5,165.833 561.5,145.167 561.5,124.5C 582.5,124.5 603.5,124.5 624.5,124.5 Z"></path></g>
<g><path style="opacity:1" fill="#858685" d="M 624.5,124.5 C 645.167,124.5 665.833,124.5 686.5,124.5C 686.5,145.167 686.5,165.833 686.5,186.5C 665.833,186.5 645.167,186.5 624.5,186.5C 624.5,165.833 624.5,145.167 624.5,124.5 Z"></path></g>
<g><path style="opacity:1" fill="#656665" d="M 686.5,124.5 C 707.5,124.5 728.5,124.5 749.5,124.5C 749.5,145.167 749.5,165.833 749.5,186.5C 728.5,186.5 707.5,186.5 686.5,186.5C 686.5,165.833 686.5,145.167 686.5,124.5 Z"></path></g>
<g><path style="opacity:1" fill="#000000" d="M 749.5,124.5 C 770.167,124.5 790.833,124.5 811.5,124.5C 811.5,166.167 811.5,207.833 811.5,249.5C 811.5,270.167 811.5,290.833 811.5,311.5C 811.5,374.167 811.5,436.833 811.5,499.5C 811.5,520.167 811.5,540.833 811.5,561.5C 811.5,644.833 811.5,728.167 811.5,811.5C 811.5,853.167 811.5,894.833 811.5,936.5C 811.5,957.5 811.5,978.5 811.5,999.5C 790.833,999.5 770.167,999.5 749.5,999.5C 749.5,853.5 749.5,707.5 749.5,561.5C 728.5,561.5 707.5,561.5 686.5,561.5C 686.5,540.833 686.5,520.167 686.5,499.5C 707.5,499.5 728.5,499.5 749.5,499.5C 749.5,478.5 749.5,457.5 749.5,436.5C 749.5,394.833 749.5,353.167 749.5,311.5C 728.5,311.5 707.5,311.5 686.5,311.5C 686.5,332.5 686.5,353.5 686.5,374.5C 665.833,374.5 645.167,374.5 624.5,374.5C 624.5,353.5 624.5,332.5 624.5,311.5C 603.5,311.5 582.5,311.5 561.5,311.5C 561.5,290.833 561.5,270.167 561.5,249.5C 582.5,249.5 603.5,249.5 624.5,249.5C 624.5,228.5 624.5,207.5 624.5,186.5C 645.167,186.5 665.833,186.5 686.5,186.5C 707.5,186.5 728.5,186.5 749.5,186.5C 749.5,165.833 749.5,145.167 749.5,124.5 Z"></path></g>
<g><path style="opacity:1" fill="#000000" d="M 1686.5,124.5 C 1707.5,124.5 1728.5,124.5 1749.5,124.5C 1749.5,145.167 1749.5,165.833 1749.5,186.5C 1728.5,186.5 1707.5,186.5 1686.5,186.5C 1686.5,165.833 1686.5,145.167 1686.5,124.5 Z"></path></g>
<g><path style="opacity:1" fill="#5e5f5e" d="M 561.5,186.5 C 582.5,186.5 603.5,186.5 624.5,186.5C 624.5,207.5 624.5,228.5 624.5,249.5C 603.5,249.5 582.5,249.5 561.5,249.5C 561.5,228.5 561.5,207.5 561.5,186.5 Z"></path></g>
<g><path style="opacity:1" fill="#bfc0bf" d="M 1686.5,186.5 C 1686.5,207.5 1686.5,228.5 1686.5,249.5C 1665.83,249.5 1645.17,249.5 1624.5,249.5C 1624.5,228.5 1624.5,207.5 1624.5,186.5C 1645.17,186.5 1665.83,186.5 1686.5,186.5 Z"></path></g>
<g><path style="opacity:1" fill="#858685" d="M 1686.5,186.5 C 1707.5,186.5 1728.5,186.5 1749.5,186.5C 1749.5,207.5 1749.5,228.5 1749.5,249.5C 1728.5,249.5 1707.5,249.5 1686.5,249.5C 1686.5,228.5 1686.5,207.5 1686.5,186.5 Z"></path></g>
<g><path style="opacity:1" fill="#000000" d="M 1749.5,186.5 C 1770.17,186.5 1790.83,186.5 1811.5,186.5C 1811.5,207.5 1811.5,228.5 1811.5,249.5C 1790.83,249.5 1770.17,249.5 1749.5,249.5C 1749.5,228.5 1749.5,207.5 1749.5,186.5 Z"></path></g>
<g><path style="opacity:1" fill="#e2e3e2" d="M 811.5,249.5 C 853.167,249.5 894.833,249.5 936.5,249.5C 936.5,291.167 936.5,332.833 936.5,374.5C 915.833,374.5 895.167,374.5 874.5,374.5C 874.5,353.5 874.5,332.5 874.5,311.5C 853.5,311.5 832.5,311.5 811.5,311.5C 811.5,290.833 811.5,270.167 811.5,249.5 Z"></path></g>
<g><path style="opacity:1" fill="#f7f8f7" d="M 1624.5,249.5 C 1645.17,249.5 1665.83,249.5 1686.5,249.5C 1686.5,270.167 1686.5,290.833 1686.5,311.5C 1707.5,311.5 1728.5,311.5 1749.5,311.5C 1749.5,332.5 1749.5,353.5 1749.5,374.5C 1707.83,374.5 1666.17,374.5 1624.5,374.5C 1624.5,332.833 1624.5,291.167 1624.5,249.5 Z"></path></g>
<g><path style="opacity:1" fill="#bfc0bf" d="M 1686.5,249.5 C 1707.5,249.5 1728.5,249.5 1749.5,249.5C 1749.5,270.167 1749.5,290.833 1749.5,311.5C 1728.5,311.5 1707.5,311.5 1686.5,311.5C 1686.5,290.833 1686.5,270.167 1686.5,249.5 Z"></path></g>
<g><path style="opacity:1" fill="#858685" d="M 1749.5,249.5 C 1770.17,249.5 1790.83,249.5 1811.5,249.5C 1811.5,270.167 1811.5,290.833 1811.5,311.5C 1790.83,311.5 1770.17,311.5 1749.5,311.5C 1749.5,290.833 1749.5,270.167 1749.5,249.5 Z"></path></g>
<g><path style="opacity:1" fill="#000000" d="M 1811.5,249.5 C 1832.5,249.5 1853.5,249.5 1874.5,249.5C 1874.5,270.167 1874.5,290.833 1874.5,311.5C 1853.5,311.5 1832.5,311.5 1811.5,311.5C 1811.5,290.833 1811.5,270.167 1811.5,249.5 Z"></path></g>
<g><path style="opacity:1" fill="#bfc0bf" d="M 561.5,311.5 C 582.5,311.5 603.5,311.5 624.5,311.5C 624.5,332.5 624.5,353.5 624.5,374.5C 624.5,395.167 624.5,415.833 624.5,436.5C 624.5,457.5 624.5,478.5 624.5,499.5C 603.5,499.5 582.5,499.5 561.5,499.5C 561.5,436.833 561.5,374.167 561.5,311.5 Z"></path></g>
<g><path style="opacity:1" fill="#414241" d="M 749.5,436.5 C 728.5,436.5 707.5,436.5 686.5,436.5C 686.5,415.833 686.5,395.167 686.5,374.5C 686.5,353.5 686.5,332.5 686.5,311.5C 707.5,311.5 728.5,311.5 749.5,311.5C 749.5,353.167 749.5,394.833 749.5,436.5 Z"></path></g>
<g><path style="opacity:1" fill="#dcdddc" d="M 811.5,311.5 C 832.5,311.5 853.5,311.5 874.5,311.5C 874.5,332.5 874.5,353.5 874.5,374.5C 895.167,374.5 915.833,374.5 936.5,374.5C 936.5,416.167 936.5,457.833 936.5,499.5C 894.833,499.5 853.167,499.5 811.5,499.5C 811.5,436.833 811.5,374.167 811.5,311.5 Z"></path></g>
<g><path style="opacity:1" fill="#b1b2b1" d="M 1749.5,311.5 C 1770.17,311.5 1790.83,311.5 1811.5,311.5C 1811.5,332.5 1811.5,353.5 1811.5,374.5C 1790.83,374.5 1770.17,374.5 1749.5,374.5C 1749.5,353.5 1749.5,332.5 1749.5,311.5 Z"></path></g>
<g><path style="opacity:1" fill="#858685" d="M 1811.5,311.5 C 1832.5,311.5 1853.5,311.5 1874.5,311.5C 1874.5,332.5 1874.5,353.5 1874.5,374.5C 1853.5,374.5 1832.5,374.5 1811.5,374.5C 1811.5,353.5 1811.5,332.5 1811.5,311.5 Z"></path></g>
<g><path style="opacity:1" fill="#000000" d="M 1874.5,311.5 C 1895.17,311.5 1915.83,311.5 1936.5,311.5C 1936.5,332.5 1936.5,353.5 1936.5,374.5C 1957.5,374.5 1978.5,374.5 1999.5,374.5C 1999.5,916.167 1999.5,1457.83 1999.5,1999.5C 1478.5,1999.5 957.5,1999.5 436.5,1999.5C 436.5,1978.5 436.5,1957.5 436.5,1936.5C 457.5,1936.5 478.5,1936.5 499.5,1936.5C 520.167,1936.5 540.833,1936.5 561.5,1936.5C 582.5,1936.5 603.5,1936.5 624.5,1936.5C 645.167,1936.5 665.833,1936.5 686.5,1936.5C 707.5,1936.5 728.5,1936.5 749.5,1936.5C 791.167,1936.5 832.833,1936.5 874.5,1936.5C 895.167,1936.5 915.833,1936.5 936.5,1936.5C 957.5,1936.5 978.5,1936.5 999.5,1936.5C 1020.17,1936.5 1040.83,1936.5 1061.5,1936.5C 1061.5,1728.17 1061.5,1519.83 1061.5,1311.5C 1040.83,1311.5 1020.17,1311.5 999.5,1311.5C 999.5,1290.83 999.5,1270.17 999.5,1249.5C 1020.17,1249.5 1040.83,1249.5 1061.5,1249.5C 1082.5,1249.5 1103.5,1249.5 1124.5,1249.5C 1124.5,1186.83 1124.5,1124.17 1124.5,1061.5C 1145.17,1061.5 1165.83,1061.5 1186.5,1061.5C 1186.5,1144.83 1186.5,1228.17 1186.5,1311.5C 1165.83,1311.5 1145.17,1311.5 1124.5,1311.5C 1124.5,1519.83 1124.5,1728.17 1124.5,1936.5C 1395.17,1936.5 1665.83,1936.5 1936.5,1936.5C 1936.5,1499.17 1936.5,1061.83 1936.5,624.5C 1936.5,603.5 1936.5,582.5 1936.5,561.5C 1936.5,519.833 1936.5,478.167 1936.5,436.5C 1811.5,436.5 1686.5,436.5 1561.5,436.5C 1561.5,415.833 1561.5,395.167 1561.5,374.5C 1582.5,374.5 1603.5,374.5 1624.5,374.5C 1666.17,374.5 1707.83,374.5 1749.5,374.5C 1770.17,374.5 1790.83,374.5 1811.5,374.5C 1832.5,374.5 1853.5,374.5 1874.5,374.5C 1874.5,353.5 1874.5,332.5 1874.5,311.5 Z"></path></g>
<g><path style="opacity:1" fill="#dcdddc" d="M 624.5,374.5 C 645.167,374.5 665.833,374.5 686.5,374.5C 686.5,395.167 686.5,415.833 686.5,436.5C 665.833,436.5 645.167,436.5 624.5,436.5C 624.5,415.833 624.5,395.167 624.5,374.5 Z"></path></g>
<g><path style="opacity:1" fill="#858685" d="M 124.5,436.5 C 124.5,457.5 124.5,478.5 124.5,499.5C 103.5,499.5 82.5,499.5 61.5,499.5C 61.5,478.5 61.5,457.5 61.5,436.5C 82.5,436.5 103.5,436.5 124.5,436.5 Z"></path></g>
<g><path style="opacity:1" fill="#000000" d="M 124.5,436.5 C 145.167,436.5 165.833,436.5 186.5,436.5C 186.5,457.5 186.5,478.5 186.5,499.5C 207.5,499.5 228.5,499.5 249.5,499.5C 249.5,520.167 249.5,540.833 249.5,561.5C 270.167,561.5 290.833,561.5 311.5,561.5C 311.5,582.5 311.5,603.5 311.5,624.5C 290.833,624.5 270.167,624.5 249.5,624.5C 228.5,624.5 207.5,624.5 186.5,624.5C 186.5,603.5 186.5,582.5 186.5,561.5C 165.833,561.5 145.167,561.5 124.5,561.5C 124.5,540.833 124.5,520.167 124.5,499.5C 124.5,478.5 124.5,457.5 124.5,436.5 Z"></path></g>
<g><path style="opacity:1" fill="#858685" d="M 624.5,436.5 C 645.167,436.5 665.833,436.5 686.5,436.5C 686.5,457.5 686.5,478.5 686.5,499.5C 665.833,499.5 645.167,499.5 624.5,499.5C 624.5,478.5 624.5,457.5 624.5,436.5 Z"></path></g>
<g><path style="opacity:1" fill="#383938" d="M 686.5,436.5 C 707.5,436.5 728.5,436.5 749.5,436.5C 749.5,457.5 749.5,478.5 749.5,499.5C 728.5,499.5 707.5,499.5 686.5,499.5C 686.5,478.5 686.5,457.5 686.5,436.5 Z"></path></g>
<g><path style="opacity:1" fill="#000000" d="M 1436.5,499.5 C 1457.5,499.5 1478.5,499.5 1499.5,499.5C 1499.5,541.167 1499.5,582.833 1499.5,624.5C 1478.5,624.5 1457.5,624.5 1436.5,624.5C 1436.5,645.167 1436.5,665.833 1436.5,686.5C 1415.83,686.5 1395.17,686.5 1374.5,686.5C 1374.5,665.833 1374.5,645.167 1374.5,624.5C 1353.5,624.5 1332.5,624.5 1311.5,624.5C 1311.5,603.5 1311.5,582.5 1311.5,561.5C 1290.83,561.5 1270.17,561.5 1249.5,561.5C 1249.5,540.833 1249.5,520.167 1249.5,499.5C 1270.17,499.5 1290.83,499.5 1311.5,499.5C 1311.5,478.5 1311.5,457.5 1311.5,436.5C 1353.17,436.5 1394.83,436.5 1436.5,436.5C 1436.5,457.5 1436.5,478.5 1436.5,499.5 Z"></path></g>
<g><path style="opacity:1" fill="#dcdddc" d="M 1561.5,436.5 C 1686.5,436.5 1811.5,436.5 1936.5,436.5C 1936.5,478.167 1936.5,519.833 1936.5,561.5C 1915.83,561.5 1895.17,561.5 1874.5,561.5C 1874.5,540.833 1874.5,520.167 1874.5,499.5C 1853.5,499.5 1832.5,499.5 1811.5,499.5C 1811.5,520.167 1811.5,540.833 1811.5,561.5C 1790.83,561.5 1770.17,561.5 1749.5,561.5C 1749.5,540.833 1749.5,520.167 1749.5,499.5C 1707.83,499.5 1666.17,499.5 1624.5,499.5C 1603.5,499.5 1582.5,499.5 1561.5,499.5C 1561.5,478.5 1561.5,457.5 1561.5,436.5 Z"></path></g>
<g><path style="opacity:1" fill="#858685" d="M -0.5,499.5 C 20.1667,499.5 40.8333,499.5 61.5,499.5C 61.5,520.167 61.5,540.833 61.5,561.5C 40.8333,561.5 20.1667,561.5 -0.5,561.5C -0.5,540.833 -0.5,520.167 -0.5,499.5 Z"></path></g>
<g><path style="opacity:1" fill="#b1b2b1" d="M 61.5,499.5 C 82.5,499.5 103.5,499.5 124.5,499.5C 124.5,520.167 124.5,540.833 124.5,561.5C 103.5,561.5 82.5,561.5 61.5,561.5C 61.5,540.833 61.5,520.167 61.5,499.5 Z"></path></g>
<g><path style="opacity:1" fill="#858685" d="M 561.5,499.5 C 582.5,499.5 603.5,499.5 624.5,499.5C 624.5,520.167 624.5,540.833 624.5,561.5C 603.5,561.5 582.5,561.5 561.5,561.5C 561.5,540.833 561.5,520.167 561.5,499.5 Z"></path></g>
<g><path style="opacity:1" fill="#767776" d="M 624.5,499.5 C 645.167,499.5 665.833,499.5 686.5,499.5C 686.5,520.167 686.5,540.833 686.5,561.5C 665.833,561.5 645.167,561.5 624.5,561.5C 624.5,540.833 624.5,520.167 624.5,499.5 Z"></path></g>
<g><path style="opacity:1" fill="#d6d7d6" d="M 811.5,499.5 C 853.167,499.5 894.833,499.5 936.5,499.5C 936.5,561.833 936.5,624.167 936.5,686.5C 915.833,686.5 895.167,686.5 874.5,686.5C 874.5,644.833 874.5,603.167 874.5,561.5C 853.5,561.5 832.5,561.5 811.5,561.5C 811.5,540.833 811.5,520.167 811.5,499.5 Z"></path></g>
<g><path style="opacity:1" fill="#858685" d="M 1436.5,499.5 C 1436.5,520.167 1436.5,540.833 1436.5,561.5C 1415.83,561.5 1395.17,561.5 1374.5,561.5C 1374.5,540.833 1374.5,520.167 1374.5,499.5C 1395.17,499.5 1415.83,499.5 1436.5,499.5 Z"></path></g>
<g><path style="opacity:1" fill="#d6d7d6" d="M 1624.5,499.5 C 1666.17,499.5 1707.83,499.5 1749.5,499.5C 1749.5,520.167 1749.5,540.833 1749.5,561.5C 1770.17,561.5 1790.83,561.5 1811.5,561.5C 1811.5,582.5 1811.5,603.5 1811.5,624.5C 1790.83,624.5 1770.17,624.5 1749.5,624.5C 1728.5,624.5 1707.5,624.5 1686.5,624.5C 1686.5,603.5 1686.5,582.5 1686.5,561.5C 1665.83,561.5 1645.17,561.5 1624.5,561.5C 1624.5,540.833 1624.5,520.167 1624.5,499.5 Z"></path></g>
<g><path style="opacity:1" fill="#d6d7d6" d="M 1874.5,561.5 C 1853.5,561.5 1832.5,561.5 1811.5,561.5C 1811.5,540.833 1811.5,520.167 1811.5,499.5C 1832.5,499.5 1853.5,499.5 1874.5,499.5C 1874.5,520.167 1874.5,540.833 1874.5,561.5 Z"></path></g>
<g><path style="opacity:1" fill="#858685" d="M 61.5,561.5 C 82.5,561.5 103.5,561.5 124.5,561.5C 145.167,561.5 165.833,561.5 186.5,561.5C 186.5,582.5 186.5,603.5 186.5,624.5C 186.5,645.167 186.5,665.833 186.5,686.5C 165.833,686.5 145.167,686.5 124.5,686.5C 124.5,665.833 124.5,645.167 124.5,624.5C 103.5,624.5 82.5,624.5 61.5,624.5C 61.5,603.5 61.5,582.5 61.5,561.5 Z"></path></g>
<g><path style="opacity:1" fill="#dcdddc" d="M 436.5,561.5 C 457.5,561.5 478.5,561.5 499.5,561.5C 499.5,582.5 499.5,603.5 499.5,624.5C 478.5,624.5 457.5,624.5 436.5,624.5C 436.5,603.5 436.5,582.5 436.5,561.5 Z"></path></g>
<g><path style="opacity:1" fill="#7f0000" d="M 561.5,561.5 C 582.5,561.5 603.5,561.5 624.5,561.5C 624.5,644.833 624.5,728.167 624.5,811.5C 624.5,832.5 624.5,853.5 624.5,874.5C 603.5,874.5 582.5,874.5 561.5,874.5C 561.5,853.5 561.5,832.5 561.5,811.5C 561.5,769.833 561.5,728.167 561.5,686.5C 561.5,665.833 561.5,645.167 561.5,624.5C 561.5,603.5 561.5,582.5 561.5,561.5 Z"></path></g>
<g><path style="opacity:1" fill="#fe0000" d="M 624.5,561.5 C 645.167,561.5 665.833,561.5 686.5,561.5C 686.5,644.833 686.5,728.167 686.5,811.5C 665.833,811.5 645.167,811.5 624.5,811.5C 624.5,728.167 624.5,644.833 624.5,561.5 Z"></path></g>
<g><path style="opacity:1" fill="#7f0000" d="M 686.5,561.5 C 707.5,561.5 728.5,561.5 749.5,561.5C 749.5,707.5 749.5,853.5 749.5,999.5C 728.5,999.5 707.5,999.5 686.5,999.5C 686.5,978.5 686.5,957.5 686.5,936.5C 686.5,894.833 686.5,853.167 686.5,811.5C 686.5,728.167 686.5,644.833 686.5,561.5 Z"></path></g>
<g><path style="opacity:1" fill="#cbcccb" d="M 811.5,561.5 C 832.5,561.5 853.5,561.5 874.5,561.5C 874.5,603.167 874.5,644.833 874.5,686.5C 895.167,686.5 915.833,686.5 936.5,686.5C 936.5,728.167 936.5,769.833 936.5,811.5C 894.833,811.5 853.167,811.5 811.5,811.5C 811.5,728.167 811.5,644.833 811.5,561.5 Z"></path></g>
<g><path style="opacity:1" fill="#858685" d="M 1249.5,561.5 C 1249.5,582.5 1249.5,603.5 1249.5,624.5C 1228.5,624.5 1207.5,624.5 1186.5,624.5C 1186.5,603.5 1186.5,582.5 1186.5,561.5C 1207.5,561.5 1228.5,561.5 1249.5,561.5 Z"></path></g>
<g><path style="opacity:1" fill="#dcdddc" d="M 1249.5,561.5 C 1270.17,561.5 1290.83,561.5 1311.5,561.5C 1311.5,582.5 1311.5,603.5 1311.5,624.5C 1290.83,624.5 1270.17,624.5 1249.5,624.5C 1249.5,603.5 1249.5,582.5 1249.5,561.5 Z"></path></g>
<g><path style="opacity:1" fill="#cbcccb" d="M 1811.5,561.5 C 1832.5,561.5 1853.5,561.5 1874.5,561.5C 1874.5,582.5 1874.5,603.5 1874.5,624.5C 1853.5,624.5 1832.5,624.5 1811.5,624.5C 1811.5,603.5 1811.5,582.5 1811.5,561.5 Z"></path></g>
<g><path style="opacity:1" fill="#d6d7d6" d="M 1874.5,561.5 C 1895.17,561.5 1915.83,561.5 1936.5,561.5C 1936.5,582.5 1936.5,603.5 1936.5,624.5C 1915.83,624.5 1895.17,624.5 1874.5,624.5C 1874.5,603.5 1874.5,582.5 1874.5,561.5 Z"></path></g>
<g><path style="opacity:1" fill="#f7f8f7" d="M 186.5,624.5 C 207.5,624.5 228.5,624.5 249.5,624.5C 249.5,645.167 249.5,665.833 249.5,686.5C 228.5,686.5 207.5,686.5 186.5,686.5C 186.5,665.833 186.5,645.167 186.5,624.5 Z"></path></g>
<g><path style="opacity:1" fill="#858685" d="M 249.5,624.5 C 270.167,624.5 290.833,624.5 311.5,624.5C 311.5,645.167 311.5,665.833 311.5,686.5C 290.833,686.5 270.167,686.5 249.5,686.5C 249.5,665.833 249.5,645.167 249.5,624.5 Z"></path></g>
<g><path style="opacity:1" fill="#000000" d="M 311.5,624.5 C 332.5,624.5 353.5,624.5 374.5,624.5C 374.5,645.167 374.5,665.833 374.5,686.5C 374.5,707.5 374.5,728.5 374.5,749.5C 353.5,749.5 332.5,749.5 311.5,749.5C 311.5,728.5 311.5,707.5 311.5,686.5C 311.5,665.833 311.5,645.167 311.5,624.5 Z"></path></g>
<g><path style="opacity:1" fill="#cbcccb" d="M 436.5,624.5 C 457.5,624.5 478.5,624.5 499.5,624.5C 499.5,645.167 499.5,665.833 499.5,686.5C 520.167,686.5 540.833,686.5 561.5,686.5C 561.5,728.167 561.5,769.833 561.5,811.5C 540.833,811.5 520.167,811.5 499.5,811.5C 499.5,790.833 499.5,770.167 499.5,749.5C 478.5,749.5 457.5,749.5 436.5,749.5C 436.5,728.5 436.5,707.5 436.5,686.5C 436.5,665.833 436.5,645.167 436.5,624.5 Z"></path></g>
<g><path style="opacity:1" fill="#d6d7d6" d="M 499.5,624.5 C 520.167,624.5 540.833,624.5 561.5,624.5C 561.5,645.167 561.5,665.833 561.5,686.5C 540.833,686.5 520.167,686.5 499.5,686.5C 499.5,665.833 499.5,645.167 499.5,624.5 Z"></path></g>
<g><path style="opacity:1" fill="#858685" d="M 1186.5,624.5 C 1186.5,645.167 1186.5,665.833 1186.5,686.5C 1165.83,686.5 1145.17,686.5 1124.5,686.5C 1124.5,665.833 1124.5,645.167 1124.5,624.5C 1145.17,624.5 1165.83,624.5 1186.5,624.5 Z"></path></g>
<g><path style="opacity:1" fill="#dcdddc" d="M 1186.5,624.5 C 1207.5,624.5 1228.5,624.5 1249.5,624.5C 1249.5,645.167 1249.5,665.833 1249.5,686.5C 1228.5,686.5 1207.5,686.5 1186.5,686.5C 1186.5,665.833 1186.5,645.167 1186.5,624.5 Z"></path></g>
<g><path style="opacity:1" fill="#989998" d="M 1249.5,624.5 C 1270.17,624.5 1290.83,624.5 1311.5,624.5C 1311.5,645.167 1311.5,665.833 1311.5,686.5C 1290.83,686.5 1270.17,686.5 1249.5,686.5C 1249.5,665.833 1249.5,645.167 1249.5,624.5 Z"></path></g>
<g><path style="opacity:1" fill="#767776" d="M 1311.5,624.5 C 1332.5,624.5 1353.5,624.5 1374.5,624.5C 1374.5,645.167 1374.5,665.833 1374.5,686.5C 1353.5,686.5 1332.5,686.5 1311.5,686.5C 1311.5,665.833 1311.5,645.167 1311.5,624.5 Z"></path></g>
<g><path style="opacity:1" fill="#d6d7d6" d="M 1499.5,624.5 C 1520.17,624.5 1540.83,624.5 1561.5,624.5C 1561.5,645.167 1561.5,665.833 1561.5,686.5C 1519.83,686.5 1478.17,686.5 1436.5,686.5C 1436.5,665.833 1436.5,645.167 1436.5,624.5C 1457.5,624.5 1478.5,624.5 1499.5,624.5 Z"></path></g>
<g><path style="opacity:1" fill="#cbcccb" d="M 1749.5,624.5 C 1770.17,624.5 1790.83,624.5 1811.5,624.5C 1811.5,645.167 1811.5,665.833 1811.5,686.5C 1790.83,686.5 1770.17,686.5 1749.5,686.5C 1749.5,665.833 1749.5,645.167 1749.5,624.5 Z"></path></g>
<g><path style="opacity:1" fill="#d6d7d6" d="M 1811.5,624.5 C 1832.5,624.5 1853.5,624.5 1874.5,624.5C 1874.5,645.167 1874.5,665.833 1874.5,686.5C 1853.5,686.5 1832.5,686.5 1811.5,686.5C 1811.5,665.833 1811.5,645.167 1811.5,624.5 Z"></path></g>
<g><path style="opacity:1" fill="#cbcccb" d="M 1874.5,624.5 C 1895.17,624.5 1915.83,624.5 1936.5,624.5C 1936.5,1061.83 1936.5,1499.17 1936.5,1936.5C 1665.83,1936.5 1395.17,1936.5 1124.5,1936.5C 1124.5,1728.17 1124.5,1519.83 1124.5,1311.5C 1145.17,1311.5 1165.83,1311.5 1186.5,1311.5C 1186.5,1228.17 1186.5,1144.83 1186.5,1061.5C 1207.5,1061.5 1228.5,1061.5 1249.5,1061.5C 1249.5,1082.5 1249.5,1103.5 1249.5,1124.5C 1270.17,1124.5 1290.83,1124.5 1311.5,1124.5C 1332.5,1124.5 1353.5,1124.5 1374.5,1124.5C 1374.5,1207.83 1374.5,1291.17 1374.5,1374.5C 1353.5,1374.5 1332.5,1374.5 1311.5,1374.5C 1311.5,1541.17 1311.5,1707.83 1311.5,1874.5C 1499.17,1874.5 1686.83,1874.5 1874.5,1874.5C 1874.5,1499.5 1874.5,1124.5 1874.5,749.5C 1853.5,749.5 1832.5,749.5 1811.5,749.5C 1811.5,728.5 1811.5,707.5 1811.5,686.5C 1832.5,686.5 1853.5,686.5 1874.5,686.5C 1874.5,665.833 1874.5,645.167 1874.5,624.5 Z"></path></g>
<g><path style="opacity:1" fill="#858685" d="M 186.5,686.5 C 207.5,686.5 228.5,686.5 249.5,686.5C 249.5,707.5 249.5,728.5 249.5,749.5C 228.5,749.5 207.5,749.5 186.5,749.5C 186.5,728.5 186.5,707.5 186.5,686.5 Z"></path></g>
<g><path style="opacity:1" fill="#b1b2b1" d="M 249.5,686.5 C 270.167,686.5 290.833,686.5 311.5,686.5C 311.5,707.5 311.5,728.5 311.5,749.5C 290.833,749.5 270.167,749.5 249.5,749.5C 249.5,728.5 249.5,707.5 249.5,686.5 Z"></path></g>
<g><path style="opacity:1" fill="#000080" d="M 374.5,686.5 C 395.167,686.5 415.833,686.5 436.5,686.5C 436.5,707.5 436.5,728.5 436.5,749.5C 415.833,749.5 395.167,749.5 374.5,749.5C 374.5,728.5 374.5,707.5 374.5,686.5 Z"></path></g>
<g><path style="opacity:1" fill="#7f8000" d="M 1124.5,686.5 C 1124.5,707.5 1124.5,728.5 1124.5,749.5C 1103.5,749.5 1082.5,749.5 1061.5,749.5C 1061.5,728.5 1061.5,707.5 1061.5,686.5C 1082.5,686.5 1103.5,686.5 1124.5,686.5 Z"></path></g>
<g><path style="opacity:1" fill="#989998" d="M 1124.5,686.5 C 1145.17,686.5 1165.83,686.5 1186.5,686.5C 1186.5,707.5 1186.5,728.5 1186.5,749.5C 1165.83,749.5 1145.17,749.5 1124.5,749.5C 1124.5,728.5 1124.5,707.5 1124.5,686.5 Z"></path></g>
<g><path style="opacity:1" fill="#767776" d="M 1186.5,686.5 C 1207.5,686.5 1228.5,686.5 1249.5,686.5C 1249.5,707.5 1249.5,728.5 1249.5,749.5C 1228.5,749.5 1207.5,749.5 1186.5,749.5C 1186.5,728.5 1186.5,707.5 1186.5,686.5 Z"></path></g>
<g><path style="opacity:1" fill="#4c4d4c" d="M 1249.5,686.5 C 1270.17,686.5 1290.83,686.5 1311.5,686.5C 1311.5,707.5 1311.5,728.5 1311.5,749.5C 1290.83,749.5 1270.17,749.5 1249.5,749.5C 1249.5,728.5 1249.5,707.5 1249.5,686.5 Z"></path></g>
<g><path style="opacity:1" fill="#000000" d="M 1311.5,686.5 C 1332.5,686.5 1353.5,686.5 1374.5,686.5C 1374.5,707.5 1374.5,728.5 1374.5,749.5C 1353.5,749.5 1332.5,749.5 1311.5,749.5C 1311.5,728.5 1311.5,707.5 1311.5,686.5 Z"></path></g>
<g><path style="opacity:1" fill="#cbcccb" d="M 1374.5,686.5 C 1395.17,686.5 1415.83,686.5 1436.5,686.5C 1478.17,686.5 1519.83,686.5 1561.5,686.5C 1561.5,707.5 1561.5,728.5 1561.5,749.5C 1540.83,749.5 1520.17,749.5 1499.5,749.5C 1499.5,770.167 1499.5,790.833 1499.5,811.5C 1478.5,811.5 1457.5,811.5 1436.5,811.5C 1436.5,832.5 1436.5,853.5 1436.5,874.5C 1415.83,874.5 1395.17,874.5 1374.5,874.5C 1374.5,895.167 1374.5,915.833 1374.5,936.5C 1353.5,936.5 1332.5,936.5 1311.5,936.5C 1311.5,957.5 1311.5,978.5 1311.5,999.5C 1290.83,999.5 1270.17,999.5 1249.5,999.5C 1228.5,999.5 1207.5,999.5 1186.5,999.5C 1186.5,978.5 1186.5,957.5 1186.5,936.5C 1207.5,936.5 1228.5,936.5 1249.5,936.5C 1249.5,915.833 1249.5,895.167 1249.5,874.5C 1270.17,874.5 1290.83,874.5 1311.5,874.5C 1311.5,853.5 1311.5,832.5 1311.5,811.5C 1311.5,790.833 1311.5,770.167 1311.5,749.5C 1332.5,749.5 1353.5,749.5 1374.5,749.5C 1374.5,728.5 1374.5,707.5 1374.5,686.5 Z"></path></g>
<g><path style="opacity:1" fill="#000080" d="M 249.5,749.5 C 270.167,749.5 290.833,749.5 311.5,749.5C 311.5,770.167 311.5,790.833 311.5,811.5C 290.833,811.5 270.167,811.5 249.5,811.5C 249.5,790.833 249.5,770.167 249.5,749.5 Z"></path></g>
<g><path style="opacity:1" fill="#00807f" d="M 311.5,749.5 C 332.5,749.5 353.5,749.5 374.5,749.5C 374.5,770.167 374.5,790.833 374.5,811.5C 353.5,811.5 332.5,811.5 311.5,811.5C 311.5,790.833 311.5,770.167 311.5,749.5 Z"></path></g>
<g><path style="opacity:1" fill="#0000ff" d="M 374.5,749.5 C 395.167,749.5 415.833,749.5 436.5,749.5C 436.5,770.167 436.5,790.833 436.5,811.5C 415.833,811.5 395.167,811.5 374.5,811.5C 374.5,790.833 374.5,770.167 374.5,749.5 Z"></path></g>
<g><path style="opacity:1" fill="#000080" d="M 436.5,749.5 C 457.5,749.5 478.5,749.5 499.5,749.5C 499.5,770.167 499.5,790.833 499.5,811.5C 478.5,811.5 457.5,811.5 436.5,811.5C 436.5,790.833 436.5,770.167 436.5,749.5 Z"></path></g>
<g><path style="opacity:1" fill="#7f8000" d="M 1061.5,749.5 C 1061.5,770.167 1061.5,790.833 1061.5,811.5C 1040.83,811.5 1020.17,811.5 999.5,811.5C 999.5,790.833 999.5,770.167 999.5,749.5C 1020.17,749.5 1040.83,749.5 1061.5,749.5 Z"></path></g>
<g><path style="opacity:1" fill="#feff00" d="M 1061.5,749.5 C 1082.5,749.5 1103.5,749.5 1124.5,749.5C 1124.5,770.167 1124.5,790.833 1124.5,811.5C 1103.5,811.5 1082.5,811.5 1061.5,811.5C 1061.5,790.833 1061.5,770.167 1061.5,749.5 Z"></path></g>
<g><path style="opacity:1" fill="#858685" d="M 1124.5,749.5 C 1145.17,749.5 1165.83,749.5 1186.5,749.5C 1186.5,770.167 1186.5,790.833 1186.5,811.5C 1165.83,811.5 1145.17,811.5 1124.5,811.5C 1124.5,790.833 1124.5,770.167 1124.5,749.5 Z"></path></g>
<g><path style="opacity:1" fill="#212221" d="M 1186.5,749.5 C 1207.5,749.5 1228.5,749.5 1249.5,749.5C 1249.5,770.167 1249.5,790.833 1249.5,811.5C 1228.5,811.5 1207.5,811.5 1186.5,811.5C 1186.5,790.833 1186.5,770.167 1186.5,749.5 Z"></path></g>
<g><path style="opacity:1" fill="#000000" d="M 1249.5,749.5 C 1270.17,749.5 1290.83,749.5 1311.5,749.5C 1311.5,770.167 1311.5,790.833 1311.5,811.5C 1290.83,811.5 1270.17,811.5 1249.5,811.5C 1249.5,790.833 1249.5,770.167 1249.5,749.5 Z"></path></g>
<g><path style="opacity:1" fill="#000080" d="M 311.5,811.5 C 332.5,811.5 353.5,811.5 374.5,811.5C 374.5,832.5 374.5,853.5 374.5,874.5C 353.5,874.5 332.5,874.5 311.5,874.5C 311.5,853.5 311.5,832.5 311.5,811.5 Z"></path></g>
<g><path style="opacity:1" fill="#00807f" d="M 374.5,811.5 C 395.167,811.5 415.833,811.5 436.5,811.5C 436.5,832.5 436.5,853.5 436.5,874.5C 415.833,874.5 395.167,874.5 374.5,874.5C 374.5,853.5 374.5,832.5 374.5,811.5 Z"></path></g>
<g><path style="opacity:1" fill="#0000ff" d="M 436.5,811.5 C 457.5,811.5 478.5,811.5 499.5,811.5C 499.5,832.5 499.5,853.5 499.5,874.5C 478.5,874.5 457.5,874.5 436.5,874.5C 436.5,853.5 436.5,832.5 436.5,811.5 Z"></path></g>
<g><path style="opacity:1" fill="#000080" d="M 499.5,811.5 C 520.167,811.5 540.833,811.5 561.5,811.5C 561.5,832.5 561.5,853.5 561.5,874.5C 540.833,874.5 520.167,874.5 499.5,874.5C 499.5,853.5 499.5,832.5 499.5,811.5 Z"></path></g>
<g><path style="opacity:1" fill="#cb0065" d="M 624.5,811.5 C 645.167,811.5 665.833,811.5 686.5,811.5C 686.5,853.167 686.5,894.833 686.5,936.5C 665.833,936.5 645.167,936.5 624.5,936.5C 624.5,915.833 624.5,895.167 624.5,874.5C 624.5,853.5 624.5,832.5 624.5,811.5 Z"></path></g>
<g><path style="opacity:1" fill="#bfc0bf" d="M 811.5,811.5 C 853.167,811.5 894.833,811.5 936.5,811.5C 936.5,832.5 936.5,853.5 936.5,874.5C 915.833,874.5 895.167,874.5 874.5,874.5C 874.5,895.167 874.5,915.833 874.5,936.5C 853.5,936.5 832.5,936.5 811.5,936.5C 811.5,894.833 811.5,853.167 811.5,811.5 Z"></path></g>
<g><path style="opacity:1" fill="#7f8000" d="M 936.5,811.5 C 957.5,811.5 978.5,811.5 999.5,811.5C 999.5,832.5 999.5,853.5 999.5,874.5C 978.5,874.5 957.5,874.5 936.5,874.5C 936.5,853.5 936.5,832.5 936.5,811.5 Z"></path></g>
<g><path style="opacity:1" fill="#feff00" d="M 999.5,811.5 C 1020.17,811.5 1040.83,811.5 1061.5,811.5C 1061.5,832.5 1061.5,853.5 1061.5,874.5C 1040.83,874.5 1020.17,874.5 999.5,874.5C 999.5,853.5 999.5,832.5 999.5,811.5 Z"></path></g>
<g><path style="opacity:1" fill="#bfc0bf" d="M 1061.5,811.5 C 1082.5,811.5 1103.5,811.5 1124.5,811.5C 1124.5,832.5 1124.5,853.5 1124.5,874.5C 1103.5,874.5 1082.5,874.5 1061.5,874.5C 1061.5,853.5 1061.5,832.5 1061.5,811.5 Z"></path></g>
<g><path style="opacity:1" fill="#7f8000" d="M 1124.5,811.5 C 1145.17,811.5 1165.83,811.5 1186.5,811.5C 1186.5,832.5 1186.5,853.5 1186.5,874.5C 1165.83,874.5 1145.17,874.5 1124.5,874.5C 1124.5,853.5 1124.5,832.5 1124.5,811.5 Z"></path></g>
<g><path style="opacity:1" fill="#000000" d="M 1186.5,811.5 C 1207.5,811.5 1228.5,811.5 1249.5,811.5C 1249.5,832.5 1249.5,853.5 1249.5,874.5C 1228.5,874.5 1207.5,874.5 1186.5,874.5C 1186.5,853.5 1186.5,832.5 1186.5,811.5 Z"></path></g>
<g><path style="opacity:1" fill="#bfc0bf" d="M 1249.5,811.5 C 1270.17,811.5 1290.83,811.5 1311.5,811.5C 1311.5,832.5 1311.5,853.5 1311.5,874.5C 1290.83,874.5 1270.17,874.5 1249.5,874.5C 1249.5,853.5 1249.5,832.5 1249.5,811.5 Z"></path></g>
<g><path style="opacity:1" fill="#000080" d="M 374.5,874.5 C 395.167,874.5 415.833,874.5 436.5,874.5C 436.5,895.167 436.5,915.833 436.5,936.5C 415.833,936.5 395.167,936.5 374.5,936.5C 374.5,915.833 374.5,895.167 374.5,874.5 Z"></path></g>
<g><path style="opacity:1" fill="#00807f" d="M 436.5,874.5 C 457.5,874.5 478.5,874.5 499.5,874.5C 499.5,895.167 499.5,915.833 499.5,936.5C 478.5,936.5 457.5,936.5 436.5,936.5C 436.5,915.833 436.5,895.167 436.5,874.5 Z"></path></g>
<g><path style="opacity:1" fill="#0000ff" d="M 499.5,874.5 C 520.167,874.5 540.833,874.5 561.5,874.5C 561.5,895.167 561.5,915.833 561.5,936.5C 540.833,936.5 520.167,936.5 499.5,936.5C 499.5,915.833 499.5,895.167 499.5,874.5 Z"></path></g>
<g><path style="opacity:1" fill="#000080" d="M 561.5,874.5 C 582.5,874.5 603.5,874.5 624.5,874.5C 624.5,895.167 624.5,915.833 624.5,936.5C 645.167,936.5 665.833,936.5 686.5,936.5C 686.5,957.5 686.5,978.5 686.5,999.5C 603.167,999.5 519.833,999.5 436.5,999.5C 436.5,978.5 436.5,957.5 436.5,936.5C 457.5,936.5 478.5,936.5 499.5,936.5C 520.167,936.5 540.833,936.5 561.5,936.5C 561.5,915.833 561.5,895.167 561.5,874.5 Z"></path></g>
<g><path style="opacity:1" fill="#7f8000" d="M 936.5,874.5 C 936.5,895.167 936.5,915.833 936.5,936.5C 915.833,936.5 895.167,936.5 874.5,936.5C 874.5,915.833 874.5,895.167 874.5,874.5C 895.167,874.5 915.833,874.5 936.5,874.5 Z"></path></g>
<g><path style="opacity:1" fill="#feff00" d="M 936.5,874.5 C 957.5,874.5 978.5,874.5 999.5,874.5C 999.5,895.167 999.5,915.833 999.5,936.5C 978.5,936.5 957.5,936.5 936.5,936.5C 936.5,915.833 936.5,895.167 936.5,874.5 Z"></path></g>
<g><path style="opacity:1" fill="#bfc0bf" d="M 999.5,874.5 C 1020.17,874.5 1040.83,874.5 1061.5,874.5C 1061.5,895.167 1061.5,915.833 1061.5,936.5C 1040.83,936.5 1020.17,936.5 999.5,936.5C 999.5,915.833 999.5,895.167 999.5,874.5 Z"></path></g>
<g><path style="opacity:1" fill="#7f8000" d="M 1061.5,874.5 C 1082.5,874.5 1103.5,874.5 1124.5,874.5C 1124.5,895.167 1124.5,915.833 1124.5,936.5C 1103.5,936.5 1082.5,936.5 1061.5,936.5C 1061.5,915.833 1061.5,895.167 1061.5,874.5 Z"></path></g>
<g><path style="opacity:1" fill="#000000" d="M 1124.5,874.5 C 1145.17,874.5 1165.83,874.5 1186.5,874.5C 1186.5,895.167 1186.5,915.833 1186.5,936.5C 1165.83,936.5 1145.17,936.5 1124.5,936.5C 1124.5,915.833 1124.5,895.167 1124.5,874.5 Z"></path></g>
<g><path style="opacity:1" fill="#bfc0bf" d="M 1186.5,874.5 C 1207.5,874.5 1228.5,874.5 1249.5,874.5C 1249.5,895.167 1249.5,915.833 1249.5,936.5C 1228.5,936.5 1207.5,936.5 1186.5,936.5C 1186.5,915.833 1186.5,895.167 1186.5,874.5 Z"></path></g>
<g><path style="opacity:1" fill="#858685" d="M 374.5,936.5 C 395.167,936.5 415.833,936.5 436.5,936.5C 436.5,957.5 436.5,978.5 436.5,999.5C 519.833,999.5 603.167,999.5 686.5,999.5C 707.5,999.5 728.5,999.5 749.5,999.5C 770.167,999.5 790.833,999.5 811.5,999.5C 832.5,999.5 853.5,999.5 874.5,999.5C 916.167,999.5 957.833,999.5 999.5,999.5C 1020.17,999.5 1040.83,999.5 1061.5,999.5C 1061.5,1020.17 1061.5,1040.83 1061.5,1061.5C 1040.83,1061.5 1020.17,1061.5 999.5,1061.5C 999.5,1124.17 999.5,1186.83 999.5,1249.5C 978.5,1249.5 957.5,1249.5 936.5,1249.5C 936.5,1186.83 936.5,1124.17 936.5,1061.5C 915.833,1061.5 895.167,1061.5 874.5,1061.5C 853.5,1061.5 832.5,1061.5 811.5,1061.5C 790.833,1061.5 770.167,1061.5 749.5,1061.5C 728.5,1061.5 707.5,1061.5 686.5,1061.5C 665.833,1061.5 645.167,1061.5 624.5,1061.5C 603.5,1061.5 582.5,1061.5 561.5,1061.5C 519.833,1061.5 478.167,1061.5 436.5,1061.5C 415.833,1061.5 395.167,1061.5 374.5,1061.5C 374.5,1019.83 374.5,978.167 374.5,936.5 Z"></path></g>
<g><path style="opacity:1" fill="#7f8000" d="M 811.5,936.5 C 832.5,936.5 853.5,936.5 874.5,936.5C 874.5,957.5 874.5,978.5 874.5,999.5C 853.5,999.5 832.5,999.5 811.5,999.5C 811.5,978.5 811.5,957.5 811.5,936.5 Z"></path></g>
<g><path style="opacity:1" fill="#bfc0bf" d="M 874.5,936.5 C 895.167,936.5 915.833,936.5 936.5,936.5C 957.5,936.5 978.5,936.5 999.5,936.5C 999.5,957.5 999.5,978.5 999.5,999.5C 957.833,999.5 916.167,999.5 874.5,999.5C 874.5,978.5 874.5,957.5 874.5,936.5 Z"></path></g>
<g><path style="opacity:1" fill="#7f8000" d="M 999.5,936.5 C 1020.17,936.5 1040.83,936.5 1061.5,936.5C 1061.5,957.5 1061.5,978.5 1061.5,999.5C 1040.83,999.5 1020.17,999.5 999.5,999.5C 999.5,978.5 999.5,957.5 999.5,936.5 Z"></path></g>
<g><path style="opacity:1" fill="#000000" d="M 1061.5,936.5 C 1082.5,936.5 1103.5,936.5 1124.5,936.5C 1124.5,957.5 1124.5,978.5 1124.5,999.5C 1103.5,999.5 1082.5,999.5 1061.5,999.5C 1061.5,978.5 1061.5,957.5 1061.5,936.5 Z"></path></g>
<g><path style="opacity:1" fill="#bfc0bf" d="M 1124.5,936.5 C 1145.17,936.5 1165.83,936.5 1186.5,936.5C 1186.5,957.5 1186.5,978.5 1186.5,999.5C 1165.83,999.5 1145.17,999.5 1124.5,999.5C 1124.5,978.5 1124.5,957.5 1124.5,936.5 Z"></path></g>
<g><path style="opacity:1" fill="#767776" d="M 1061.5,999.5 C 1082.5,999.5 1103.5,999.5 1124.5,999.5C 1124.5,1020.17 1124.5,1040.83 1124.5,1061.5C 1103.5,1061.5 1082.5,1061.5 1061.5,1061.5C 1061.5,1040.83 1061.5,1020.17 1061.5,999.5 Z"></path></g>
<g><path style="opacity:1" fill="#b1b2b1" d="M 1124.5,999.5 C 1145.17,999.5 1165.83,999.5 1186.5,999.5C 1186.5,1020.17 1186.5,1040.83 1186.5,1061.5C 1165.83,1061.5 1145.17,1061.5 1124.5,1061.5C 1124.5,1040.83 1124.5,1020.17 1124.5,999.5 Z"></path></g>
<g><path style="opacity:1" fill="#d6d7d6" d="M 1186.5,999.5 C 1207.5,999.5 1228.5,999.5 1249.5,999.5C 1249.5,1020.17 1249.5,1040.83 1249.5,1061.5C 1228.5,1061.5 1207.5,1061.5 1186.5,1061.5C 1186.5,1040.83 1186.5,1020.17 1186.5,999.5 Z"></path></g>
<g><path style="opacity:1" fill="#858685" d="M 374.5,1061.5 C 374.5,1144.83 374.5,1228.17 374.5,1311.5C 353.5,1311.5 332.5,1311.5 311.5,1311.5C 311.5,1228.17 311.5,1144.83 311.5,1061.5C 332.5,1061.5 353.5,1061.5 374.5,1061.5 Z"></path></g>
<g><path style="opacity:1" fill="#cbcccb" d="M 374.5,1061.5 C 395.167,1061.5 415.833,1061.5 436.5,1061.5C 436.5,1124.17 436.5,1186.83 436.5,1249.5C 436.5,1270.17 436.5,1290.83 436.5,1311.5C 415.833,1311.5 395.167,1311.5 374.5,1311.5C 374.5,1228.17 374.5,1144.83 374.5,1061.5 Z"></path></g>
<g><path style="opacity:1" fill="#f7f8f7" d="M 436.5,1061.5 C 478.167,1061.5 519.833,1061.5 561.5,1061.5C 561.5,1103.17 561.5,1144.83 561.5,1186.5C 561.5,1207.5 561.5,1228.5 561.5,1249.5C 519.833,1249.5 478.167,1249.5 436.5,1249.5C 436.5,1186.83 436.5,1124.17 436.5,1061.5 Z"></path></g>
<g><path style="opacity:1" fill="#e9eae9" d="M 561.5,1061.5 C 582.5,1061.5 603.5,1061.5 624.5,1061.5C 624.5,1103.17 624.5,1144.83 624.5,1186.5C 603.5,1186.5 582.5,1186.5 561.5,1186.5C 561.5,1144.83 561.5,1103.17 561.5,1061.5 Z"></path></g>
<g><path style="opacity:1" fill="#dcdddc" d="M 624.5,1061.5 C 645.167,1061.5 665.833,1061.5 686.5,1061.5C 686.5,1082.5 686.5,1103.5 686.5,1124.5C 686.5,1166.17 686.5,1207.83 686.5,1249.5C 665.833,1249.5 645.167,1249.5 624.5,1249.5C 624.5,1228.5 624.5,1207.5 624.5,1186.5C 624.5,1144.83 624.5,1103.17 624.5,1061.5 Z"></path></g>
<g><path style="opacity:1" fill="#bfc0bf" d="M 686.5,1061.5 C 707.5,1061.5 728.5,1061.5 749.5,1061.5C 749.5,1082.5 749.5,1103.5 749.5,1124.5C 728.5,1124.5 707.5,1124.5 686.5,1124.5C 686.5,1103.5 686.5,1082.5 686.5,1061.5 Z"></path></g>
<g><path style="opacity:1" fill="#b1b2b1" d="M 749.5,1061.5 C 770.167,1061.5 790.833,1061.5 811.5,1061.5C 811.5,1124.17 811.5,1186.83 811.5,1249.5C 790.833,1249.5 770.167,1249.5 749.5,1249.5C 749.5,1207.83 749.5,1166.17 749.5,1124.5C 749.5,1103.5 749.5,1082.5 749.5,1061.5 Z"></path></g>
<g><path style="opacity:1" fill="#9fa0a3" d="M 811.5,1061.5 C 832.5,1061.5 853.5,1061.5 874.5,1061.5C 874.5,1124.17 874.5,1186.83 874.5,1249.5C 853.5,1249.5 832.5,1249.5 811.5,1249.5C 811.5,1186.83 811.5,1124.17 811.5,1061.5 Z"></path></g>
<g><path style="opacity:1" fill="#959695" d="M 874.5,1061.5 C 895.167,1061.5 915.833,1061.5 936.5,1061.5C 936.5,1124.17 936.5,1186.83 936.5,1249.5C 915.833,1249.5 895.167,1249.5 874.5,1249.5C 874.5,1186.83 874.5,1124.17 874.5,1061.5 Z"></path></g>
<g><path style="opacity:1" fill="#767776" d="M 1061.5,1061.5 C 1061.5,1124.17 1061.5,1186.83 1061.5,1249.5C 1040.83,1249.5 1020.17,1249.5 999.5,1249.5C 999.5,1186.83 999.5,1124.17 999.5,1061.5C 1020.17,1061.5 1040.83,1061.5 1061.5,1061.5 Z"></path></g>
<g><path style="opacity:1" fill="#656665" d="M 1061.5,1061.5 C 1082.5,1061.5 1103.5,1061.5 1124.5,1061.5C 1124.5,1124.17 1124.5,1186.83 1124.5,1249.5C 1103.5,1249.5 1082.5,1249.5 1061.5,1249.5C 1061.5,1186.83 1061.5,1124.17 1061.5,1061.5 Z"></path></g>
<g><path style="opacity:1" fill="#d6d7d6" d="M 1249.5,1061.5 C 1270.17,1061.5 1290.83,1061.5 1311.5,1061.5C 1311.5,1082.5 1311.5,1103.5 1311.5,1124.5C 1290.83,1124.5 1270.17,1124.5 1249.5,1124.5C 1249.5,1103.5 1249.5,1082.5 1249.5,1061.5 Z"></path></g>
<g><path style="opacity:1" fill="#cbcccb" d="M 686.5,1124.5 C 707.5,1124.5 728.5,1124.5 749.5,1124.5C 749.5,1166.17 749.5,1207.83 749.5,1249.5C 728.5,1249.5 707.5,1249.5 686.5,1249.5C 686.5,1207.83 686.5,1166.17 686.5,1124.5 Z"></path></g>
<g><path style="opacity:1" fill="#f0f1f0" d="M 561.5,1186.5 C 582.5,1186.5 603.5,1186.5 624.5,1186.5C 624.5,1207.5 624.5,1228.5 624.5,1249.5C 603.5,1249.5 582.5,1249.5 561.5,1249.5C 561.5,1228.5 561.5,1207.5 561.5,1186.5 Z"></path></g>
<g><path style="opacity:1" fill="#b1b2b1" d="M 436.5,1249.5 C 478.167,1249.5 519.833,1249.5 561.5,1249.5C 582.5,1249.5 603.5,1249.5 624.5,1249.5C 624.5,1270.17 624.5,1290.83 624.5,1311.5C 603.5,1311.5 582.5,1311.5 561.5,1311.5C 540.833,1311.5 520.167,1311.5 499.5,1311.5C 478.5,1311.5 457.5,1311.5 436.5,1311.5C 436.5,1290.83 436.5,1270.17 436.5,1249.5 Z"></path></g>
<g><path style="opacity:1" fill="#767776" d="M 624.5,1249.5 C 645.167,1249.5 665.833,1249.5 686.5,1249.5C 707.5,1249.5 728.5,1249.5 749.5,1249.5C 770.167,1249.5 790.833,1249.5 811.5,1249.5C 811.5,1270.17 811.5,1290.83 811.5,1311.5C 769.833,1311.5 728.167,1311.5 686.5,1311.5C 665.833,1311.5 645.167,1311.5 624.5,1311.5C 624.5,1290.83 624.5,1270.17 624.5,1249.5 Z"></path></g>
<g><path style="opacity:1" fill="#656665" d="M 811.5,1249.5 C 832.5,1249.5 853.5,1249.5 874.5,1249.5C 895.167,1249.5 915.833,1249.5 936.5,1249.5C 957.5,1249.5 978.5,1249.5 999.5,1249.5C 999.5,1270.17 999.5,1290.83 999.5,1311.5C 978.5,1311.5 957.5,1311.5 936.5,1311.5C 894.833,1311.5 853.167,1311.5 811.5,1311.5C 811.5,1290.83 811.5,1270.17 811.5,1249.5 Z"></path></g>
<g><path style="opacity:1" fill="#858685" d="M 374.5,1311.5 C 395.167,1311.5 415.833,1311.5 436.5,1311.5C 436.5,1499.17 436.5,1686.83 436.5,1874.5C 436.5,1895.17 436.5,1915.83 436.5,1936.5C 415.833,1936.5 395.167,1936.5 374.5,1936.5C 374.5,1728.17 374.5,1519.83 374.5,1311.5 Z"></path></g>
<g><path style="opacity:1" fill="#cbcccb" d="M 436.5,1311.5 C 457.5,1311.5 478.5,1311.5 499.5,1311.5C 499.5,1353.17 499.5,1394.83 499.5,1436.5C 499.5,1478.17 499.5,1519.83 499.5,1561.5C 499.5,1582.5 499.5,1603.5 499.5,1624.5C 499.5,1666.17 499.5,1707.83 499.5,1749.5C 499.5,1770.17 499.5,1790.83 499.5,1811.5C 499.5,1832.5 499.5,1853.5 499.5,1874.5C 478.5,1874.5 457.5,1874.5 436.5,1874.5C 436.5,1686.83 436.5,1499.17 436.5,1311.5 Z"></path></g>
<g><path style="opacity:1" fill="#e9eae9" d="M 499.5,1311.5 C 520.167,1311.5 540.833,1311.5 561.5,1311.5C 561.5,1332.5 561.5,1353.5 561.5,1374.5C 561.5,1395.17 561.5,1415.83 561.5,1436.5C 540.833,1436.5 520.167,1436.5 499.5,1436.5C 499.5,1394.83 499.5,1353.17 499.5,1311.5 Z"></path></g>
<g><path style="opacity:1" fill="#cbcccb" d="M 561.5,1311.5 C 582.5,1311.5 603.5,1311.5 624.5,1311.5C 645.167,1311.5 665.833,1311.5 686.5,1311.5C 686.5,1332.5 686.5,1353.5 686.5,1374.5C 665.833,1374.5 645.167,1374.5 624.5,1374.5C 603.5,1374.5 582.5,1374.5 561.5,1374.5C 561.5,1353.5 561.5,1332.5 561.5,1311.5 Z"></path></g>
<g><path style="opacity:1" fill="#9fa0a3" d="M 686.5,1311.5 C 728.167,1311.5 769.833,1311.5 811.5,1311.5C 811.5,1332.5 811.5,1353.5 811.5,1374.5C 811.5,1395.17 811.5,1415.83 811.5,1436.5C 790.833,1436.5 770.167,1436.5 749.5,1436.5C 749.5,1415.83 749.5,1395.17 749.5,1374.5C 728.5,1374.5 707.5,1374.5 686.5,1374.5C 686.5,1353.5 686.5,1332.5 686.5,1311.5 Z"></path></g>
<g><path style="opacity:1" fill="#858685" d="M 811.5,1311.5 C 853.167,1311.5 894.833,1311.5 936.5,1311.5C 936.5,1353.17 936.5,1394.83 936.5,1436.5C 915.833,1436.5 895.167,1436.5 874.5,1436.5C 874.5,1415.83 874.5,1395.17 874.5,1374.5C 853.5,1374.5 832.5,1374.5 811.5,1374.5C 811.5,1353.5 811.5,1332.5 811.5,1311.5 Z"></path></g>
<g><path style="opacity:1" fill="#767776" d="M 936.5,1311.5 C 957.5,1311.5 978.5,1311.5 999.5,1311.5C 999.5,1374.17 999.5,1436.83 999.5,1499.5C 978.5,1499.5 957.5,1499.5 936.5,1499.5C 936.5,1478.5 936.5,1457.5 936.5,1436.5C 936.5,1394.83 936.5,1353.17 936.5,1311.5 Z"></path></g>
<g><path style="opacity:1" fill="#656665" d="M 999.5,1311.5 C 1020.17,1311.5 1040.83,1311.5 1061.5,1311.5C 1061.5,1519.83 1061.5,1728.17 1061.5,1936.5C 1040.83,1936.5 1020.17,1936.5 999.5,1936.5C 999.5,1915.83 999.5,1895.17 999.5,1874.5C 999.5,1791.17 999.5,1707.83 999.5,1624.5C 999.5,1582.83 999.5,1541.17 999.5,1499.5C 999.5,1436.83 999.5,1374.17 999.5,1311.5 Z"></path></g>
<g><path style="opacity:1" fill="#dcdddc" d="M 561.5,1374.5 C 582.5,1374.5 603.5,1374.5 624.5,1374.5C 624.5,1395.17 624.5,1415.83 624.5,1436.5C 603.5,1436.5 582.5,1436.5 561.5,1436.5C 561.5,1415.83 561.5,1395.17 561.5,1374.5 Z"></path></g>
<g><path style="opacity:1" fill="#bfc0bf" d="M 624.5,1374.5 C 645.167,1374.5 665.833,1374.5 686.5,1374.5C 686.5,1395.17 686.5,1415.83 686.5,1436.5C 665.833,1436.5 645.167,1436.5 624.5,1436.5C 624.5,1415.83 624.5,1395.17 624.5,1374.5 Z"></path></g>
<g><path style="opacity:1" fill="#b1b2b1" d="M 686.5,1374.5 C 707.5,1374.5 728.5,1374.5 749.5,1374.5C 749.5,1395.17 749.5,1415.83 749.5,1436.5C 728.5,1436.5 707.5,1436.5 686.5,1436.5C 686.5,1415.83 686.5,1395.17 686.5,1374.5 Z"></path></g>
<g><path style="opacity:1" fill="#979797" d="M 811.5,1374.5 C 832.5,1374.5 853.5,1374.5 874.5,1374.5C 874.5,1395.17 874.5,1415.83 874.5,1436.5C 895.167,1436.5 915.833,1436.5 936.5,1436.5C 936.5,1457.5 936.5,1478.5 936.5,1499.5C 936.5,1541.17 936.5,1582.83 936.5,1624.5C 957.5,1624.5 978.5,1624.5 999.5,1624.5C 999.5,1707.83 999.5,1791.17 999.5,1874.5C 978.5,1874.5 957.5,1874.5 936.5,1874.5C 915.833,1874.5 895.167,1874.5 874.5,1874.5C 874.5,1853.5 874.5,1832.5 874.5,1811.5C 895.167,1811.5 915.833,1811.5 936.5,1811.5C 936.5,1769.83 936.5,1728.17 936.5,1686.5C 915.833,1686.5 895.167,1686.5 874.5,1686.5C 874.5,1624.17 874.5,1561.83 874.5,1499.5C 853.5,1499.5 832.5,1499.5 811.5,1499.5C 811.5,1478.5 811.5,1457.5 811.5,1436.5C 811.5,1415.83 811.5,1395.17 811.5,1374.5 Z"></path></g>
<g><path style="opacity:1" fill="#f7f8f7" d="M 499.5,1436.5 C 520.167,1436.5 540.833,1436.5 561.5,1436.5C 561.5,1478.17 561.5,1519.83 561.5,1561.5C 540.833,1561.5 520.167,1561.5 499.5,1561.5C 499.5,1519.83 499.5,1478.17 499.5,1436.5 Z"></path></g>
<g><path style="opacity:1" fill="#f0f1f0" d="M 561.5,1436.5 C 582.5,1436.5 603.5,1436.5 624.5,1436.5C 624.5,1457.5 624.5,1478.5 624.5,1499.5C 624.5,1520.17 624.5,1540.83 624.5,1561.5C 603.5,1561.5 582.5,1561.5 561.5,1561.5C 561.5,1519.83 561.5,1478.17 561.5,1436.5 Z"></path></g>
<g><path style="opacity:1" fill="#e2e3e2" d="M 624.5,1436.5 C 645.167,1436.5 665.833,1436.5 686.5,1436.5C 686.5,1457.5 686.5,1478.5 686.5,1499.5C 665.833,1499.5 645.167,1499.5 624.5,1499.5C 624.5,1478.5 624.5,1457.5 624.5,1436.5 Z"></path></g>
<g><path style="opacity:1" fill="#bfc0bf" d="M 686.5,1436.5 C 707.5,1436.5 728.5,1436.5 749.5,1436.5C 749.5,1457.5 749.5,1478.5 749.5,1499.5C 728.5,1499.5 707.5,1499.5 686.5,1499.5C 686.5,1478.5 686.5,1457.5 686.5,1436.5 Z"></path></g>
<g><path style="opacity:1" fill="#b1b2b1" d="M 749.5,1436.5 C 770.167,1436.5 790.833,1436.5 811.5,1436.5C 811.5,1457.5 811.5,1478.5 811.5,1499.5C 790.833,1499.5 770.167,1499.5 749.5,1499.5C 749.5,1478.5 749.5,1457.5 749.5,1436.5 Z"></path></g>
<g><path style="opacity:1" fill="#dcdddc" d="M 624.5,1499.5 C 645.167,1499.5 665.833,1499.5 686.5,1499.5C 686.5,1520.17 686.5,1540.83 686.5,1561.5C 665.833,1561.5 645.167,1561.5 624.5,1561.5C 624.5,1540.83 624.5,1520.17 624.5,1499.5 Z"></path></g>
<g><path style="opacity:1" fill="#cbcccb" d="M 686.5,1499.5 C 707.5,1499.5 728.5,1499.5 749.5,1499.5C 749.5,1520.17 749.5,1540.83 749.5,1561.5C 728.5,1561.5 707.5,1561.5 686.5,1561.5C 686.5,1540.83 686.5,1520.17 686.5,1499.5 Z"></path></g>
<g><path style="opacity:1" fill="#bfc0bf" d="M 749.5,1499.5 C 770.167,1499.5 790.833,1499.5 811.5,1499.5C 811.5,1520.17 811.5,1540.83 811.5,1561.5C 790.833,1561.5 770.167,1561.5 749.5,1561.5C 749.5,1540.83 749.5,1520.17 749.5,1499.5 Z"></path></g>
<g><path style="opacity:1" fill="#b1b2b1" d="M 811.5,1499.5 C 832.5,1499.5 853.5,1499.5 874.5,1499.5C 874.5,1561.83 874.5,1624.17 874.5,1686.5C 874.5,1728.17 874.5,1769.83 874.5,1811.5C 874.5,1832.5 874.5,1853.5 874.5,1874.5C 874.5,1895.17 874.5,1915.83 874.5,1936.5C 832.833,1936.5 791.167,1936.5 749.5,1936.5C 749.5,1915.83 749.5,1895.17 749.5,1874.5C 770.167,1874.5 790.833,1874.5 811.5,1874.5C 811.5,1832.83 811.5,1791.17 811.5,1749.5C 790.833,1749.5 770.167,1749.5 749.5,1749.5C 749.5,1728.5 749.5,1707.5 749.5,1686.5C 770.167,1686.5 790.833,1686.5 811.5,1686.5C 811.5,1665.83 811.5,1645.17 811.5,1624.5C 790.833,1624.5 770.167,1624.5 749.5,1624.5C 749.5,1603.5 749.5,1582.5 749.5,1561.5C 770.167,1561.5 790.833,1561.5 811.5,1561.5C 811.5,1540.83 811.5,1520.17 811.5,1499.5 Z"></path></g>
<g><path style="opacity:1" fill="#858685" d="M 936.5,1499.5 C 957.5,1499.5 978.5,1499.5 999.5,1499.5C 999.5,1541.17 999.5,1582.83 999.5,1624.5C 978.5,1624.5 957.5,1624.5 936.5,1624.5C 936.5,1582.83 936.5,1541.17 936.5,1499.5 Z"></path></g>
<g><path style="opacity:1" fill="#f0f1f0" d="M 499.5,1561.5 C 520.167,1561.5 540.833,1561.5 561.5,1561.5C 561.5,1582.5 561.5,1603.5 561.5,1624.5C 540.833,1624.5 520.167,1624.5 499.5,1624.5C 499.5,1603.5 499.5,1582.5 499.5,1561.5 Z"></path></g>
<g><path style="opacity:1" fill="#e9eae9" d="M 561.5,1561.5 C 582.5,1561.5 603.5,1561.5 624.5,1561.5C 624.5,1582.5 624.5,1603.5 624.5,1624.5C 603.5,1624.5 582.5,1624.5 561.5,1624.5C 561.5,1603.5 561.5,1582.5 561.5,1561.5 Z"></path></g>
<g><path style="opacity:1" fill="#e6e7d5" d="M 624.5,1561.5 C 645.167,1561.5 665.833,1561.5 686.5,1561.5C 686.5,1582.5 686.5,1603.5 686.5,1624.5C 665.833,1624.5 645.167,1624.5 624.5,1624.5C 624.5,1603.5 624.5,1582.5 624.5,1561.5 Z"></path></g>
<g><path style="opacity:1" fill="#d6d7d6" d="M 686.5,1561.5 C 707.5,1561.5 728.5,1561.5 749.5,1561.5C 749.5,1582.5 749.5,1603.5 749.5,1624.5C 728.5,1624.5 707.5,1624.5 686.5,1624.5C 686.5,1603.5 686.5,1582.5 686.5,1561.5 Z"></path></g>
<g><path style="opacity:1" fill="#f7f8f7" d="M 499.5,1624.5 C 520.167,1624.5 540.833,1624.5 561.5,1624.5C 561.5,1666.17 561.5,1707.83 561.5,1749.5C 540.833,1749.5 520.167,1749.5 499.5,1749.5C 499.5,1707.83 499.5,1666.17 499.5,1624.5 Z"></path></g>
<g><path style="opacity:1" fill="#f0f1f0" d="M 561.5,1624.5 C 582.5,1624.5 603.5,1624.5 624.5,1624.5C 624.5,1645.17 624.5,1665.83 624.5,1686.5C 624.5,1707.5 624.5,1728.5 624.5,1749.5C 624.5,1811.83 624.5,1874.17 624.5,1936.5C 603.5,1936.5 582.5,1936.5 561.5,1936.5C 561.5,1894.83 561.5,1853.17 561.5,1811.5C 540.833,1811.5 520.167,1811.5 499.5,1811.5C 499.5,1790.83 499.5,1770.17 499.5,1749.5C 520.167,1749.5 540.833,1749.5 561.5,1749.5C 561.5,1707.83 561.5,1666.17 561.5,1624.5 Z"></path></g>
<g><path style="opacity:1" fill="#dcdddc" d="M 624.5,1624.5 C 645.167,1624.5 665.833,1624.5 686.5,1624.5C 686.5,1645.17 686.5,1665.83 686.5,1686.5C 665.833,1686.5 645.167,1686.5 624.5,1686.5C 624.5,1665.83 624.5,1645.17 624.5,1624.5 Z"></path></g>
<g><path style="opacity:1" fill="#cbcccb" d="M 686.5,1624.5 C 707.5,1624.5 728.5,1624.5 749.5,1624.5C 749.5,1645.17 749.5,1665.83 749.5,1686.5C 728.5,1686.5 707.5,1686.5 686.5,1686.5C 686.5,1665.83 686.5,1645.17 686.5,1624.5 Z"></path></g>
<g><path style="opacity:1" fill="#bfc0bf" d="M 749.5,1624.5 C 770.167,1624.5 790.833,1624.5 811.5,1624.5C 811.5,1645.17 811.5,1665.83 811.5,1686.5C 790.833,1686.5 770.167,1686.5 749.5,1686.5C 749.5,1665.83 749.5,1645.17 749.5,1624.5 Z"></path></g>
<g><path style="opacity:1" fill="#e2e3e2" d="M 624.5,1686.5 C 645.167,1686.5 665.833,1686.5 686.5,1686.5C 686.5,1707.5 686.5,1728.5 686.5,1749.5C 665.833,1749.5 645.167,1749.5 624.5,1749.5C 624.5,1728.5 624.5,1707.5 624.5,1686.5 Z"></path></g>
<g><path style="opacity:1" fill="#d6d7d6" d="M 686.5,1686.5 C 707.5,1686.5 728.5,1686.5 749.5,1686.5C 749.5,1707.5 749.5,1728.5 749.5,1749.5C 749.5,1770.17 749.5,1790.83 749.5,1811.5C 728.5,1811.5 707.5,1811.5 686.5,1811.5C 686.5,1790.83 686.5,1770.17 686.5,1749.5C 686.5,1728.5 686.5,1707.5 686.5,1686.5 Z"></path></g>
<g><path style="opacity:1" fill="#9fa0a3" d="M 874.5,1686.5 C 895.167,1686.5 915.833,1686.5 936.5,1686.5C 936.5,1728.17 936.5,1769.83 936.5,1811.5C 915.833,1811.5 895.167,1811.5 874.5,1811.5C 874.5,1769.83 874.5,1728.17 874.5,1686.5 Z"></path></g>
<g><path style="opacity:1" fill="#dcdddc" d="M 624.5,1749.5 C 645.167,1749.5 665.833,1749.5 686.5,1749.5C 686.5,1770.17 686.5,1790.83 686.5,1811.5C 686.5,1832.5 686.5,1853.5 686.5,1874.5C 686.5,1895.17 686.5,1915.83 686.5,1936.5C 665.833,1936.5 645.167,1936.5 624.5,1936.5C 624.5,1874.17 624.5,1811.83 624.5,1749.5 Z"></path></g>
<g><path style="opacity:1" fill="#bfc0bf" d="M 749.5,1749.5 C 770.167,1749.5 790.833,1749.5 811.5,1749.5C 811.5,1791.17 811.5,1832.83 811.5,1874.5C 790.833,1874.5 770.167,1874.5 749.5,1874.5C 749.5,1853.5 749.5,1832.5 749.5,1811.5C 749.5,1790.83 749.5,1770.17 749.5,1749.5 Z"></path></g>
<g><path style="opacity:1" fill="#f7f8f7" d="M 499.5,1811.5 C 520.167,1811.5 540.833,1811.5 561.5,1811.5C 561.5,1853.17 561.5,1894.83 561.5,1936.5C 540.833,1936.5 520.167,1936.5 499.5,1936.5C 499.5,1915.83 499.5,1895.17 499.5,1874.5C 499.5,1853.5 499.5,1832.5 499.5,1811.5 Z"></path></g>
<g><path style="opacity:1" fill="#cbcccb" d="M 686.5,1811.5 C 707.5,1811.5 728.5,1811.5 749.5,1811.5C 749.5,1832.5 749.5,1853.5 749.5,1874.5C 728.5,1874.5 707.5,1874.5 686.5,1874.5C 686.5,1853.5 686.5,1832.5 686.5,1811.5 Z"></path></g>
<g><path style="opacity:1" fill="#d6d7d6" d="M 436.5,1874.5 C 457.5,1874.5 478.5,1874.5 499.5,1874.5C 499.5,1895.17 499.5,1915.83 499.5,1936.5C 478.5,1936.5 457.5,1936.5 436.5,1936.5C 436.5,1915.83 436.5,1895.17 436.5,1874.5 Z"></path></g>
<g><path style="opacity:1" fill="#d6d7d6" d="M 686.5,1874.5 C 707.5,1874.5 728.5,1874.5 749.5,1874.5C 749.5,1895.17 749.5,1915.83 749.5,1936.5C 728.5,1936.5 707.5,1936.5 686.5,1936.5C 686.5,1915.83 686.5,1895.17 686.5,1874.5 Z"></path></g>
<g><path style="opacity:1" fill="#9fa0a3" d="M 874.5,1874.5 C 895.167,1874.5 915.833,1874.5 936.5,1874.5C 936.5,1895.17 936.5,1915.83 936.5,1936.5C 915.833,1936.5 895.167,1936.5 874.5,1936.5C 874.5,1915.83 874.5,1895.17 874.5,1874.5 Z"></path></g>
<g><path style="opacity:1" fill="#858685" d="M 936.5,1874.5 C 957.5,1874.5 978.5,1874.5 999.5,1874.5C 999.5,1895.17 999.5,1915.83 999.5,1936.5C 978.5,1936.5 957.5,1936.5 936.5,1936.5C 936.5,1915.83 936.5,1895.17 936.5,1874.5 Z"></path></g>
</svg></svg><style>@media (prefers-color-scheme: light) { :root { filter: none; } }
@media (prefers-color-scheme: dark) { :root { filter: none; } }
</style></svg>